<?xml version="1.0" encoding="utf-8"?>
<!-- Generator: Adobe Illustrator 25.2.0, SVG Export Plug-In . SVG Version: 6.00 Build 0)  -->
<svg version="1.0" id="Layer_1" xmlns="http://www.w3.org/2000/svg" xmlns:xlink="http://www.w3.org/1999/xlink" x="0px" y="0px"
	 viewBox="0 0 50 50" style="enable-background:new 0 0 50 50;" xml:space="preserve">
<style type="text/css">
	.st0{fill:#595959;}
</style>
<g id="Medium-L" transform="matrix(1 0 0 1 1672.31 1556)">
	<path class="st0" d="M-1663.8-1506h32.9c5.6,0,8.6-2.9,8.6-8.5v-33c0-5.5-2.9-8.5-8.6-8.5h-32.9c-5.6,0-8.5,2.9-8.5,8.5v33
		C-1672.3-1508.9-1669.4-1506-1663.8-1506z M-1647.8-1525.5c-1.5,0-2.3-0.7-2.3-2.1v-0.4c0-2.5,1.4-3.9,3.4-5.3
		c2.5-1.7,3.6-2.7,3.6-4.4c0-2-1.6-3.4-4-3.4c-1.9,0-3.3,1-4.1,2.7c-0.7,0.9-1.1,1.6-2.5,1.6c-1.1,0-2.1-0.8-2.1-1.9
		c0-0.5,0.1-1,0.3-1.4c0.8-2.7,3.9-4.9,8.6-4.9c4.9,0,8.9,2.6,8.9,7c0,3.1-1.7,4.8-4.5,6.6c-1.9,1.3-2.8,2.2-2.9,3.8
		c0,0.1,0,0.3,0,0.4C-1645.6-1526.3-1646.5-1525.5-1647.8-1525.5z M-1647.9-1517.1c-1.7,0-3-1.2-3-2.9c0-1.6,1.4-2.9,3-2.9
		c1.7,0,3,1.2,3,2.9S-1646.2-1517.1-1647.9-1517.1z"/>
</g>
</svg>